<svg width="116" height="114" viewBox="0 0 116 114" fill="none" xmlns="http://www.w3.org/2000/svg">
<path d="M41.619 92.2137C40.2027 96.1795 36.856 95.7095 33.4347 94.192C28.595 92.0447 22.1581 82.243 21.5198 77.618C20.934 73.3734 22.4515 70.0488 25.7562 69.6168" fill="white"/>
<path d="M41.619 92.2137C40.2027 96.1795 36.856 95.7095 33.4347 94.192C28.595 92.0447 22.1581 82.243 21.5198 77.618C20.934 73.3734 22.4515 70.0488 25.7562 69.6168" stroke="black" stroke-width="4.99999" stroke-linecap="round" stroke-linejoin="round"/>
<path d="M25.5799 34.8507C20.4253 35.969 23.285 44.1332 27.6256 52.1056C29.311 55.2013 24.5431 67.8403 27.4811 75.8899C29.3924 81.1269 36.5725 90.6902 41.6309 92.0082C50.2922 94.2648 57.9019 92.7879 65.5091 88.741C68.2057 87.3066 70.9592 85.2654 73.0261 83.3705C79.8135 77.1477 102.297 69.4305 103.731 67.4594C107.718 61.9835 99.9657 58.512 95.7024 59.9348C93.6374 60.6239 77.8926 63.8986 79.9905 62.1417C85.1441 57.8258 91.867 53.2514 98.4623 49.2945C108.332 43.3733 96.0804 32.8233 86.8963 38.4624C82.5938 41.1041 78.6911 42.804 69.2277 48.9246C72.7519 43.689 77.5303 35.8192 81.5291 31.2361C88.1227 23.6787 74.5967 16.4009 66.7289 25.8105C61.371 32.2187 52.9801 44.8207 41.4719 53.2439C41.5711 46.0382 41.1283 31.4769 25.5807 34.8496L25.5799 34.8507Z" fill="white" stroke="black" stroke-width="4.99999" stroke-linecap="round" stroke-linejoin="round"/>
<path d="M68.5893 47.7465C63.9368 53.8144 62.9367 57.9931 62.2019 59.8422C65.0154 55.9581 65.6257 54.8982 68.9403 50.9816C69.5022 50.3175 70.2672 49.6361 71.3262 48.9591L68.5893 47.7465Z" fill="black"/>
<path d="M79.2069 61.2436C75.7718 64.1244 72.3209 68.4227 70.7661 71.8454C72.618 70.2449 75.7765 67.4668 78.5437 64.979C79.2943 64.3043 80.1294 63.8852 81.5625 63.7872C80.603 63.1086 79.9407 62.1451 79.2069 61.2436Z" fill="black"/>
<path d="M41.4507 84.9192C47.3587 83.1813 48.6074 82.1229 51.3118 80.852" stroke="black" stroke-width="4.99999" stroke-linecap="round" stroke-linejoin="round"/>
<path d="M37.6616 80.8982C43.5221 77.4262 46.0126 75.2044 49.7056 72.5364" stroke="black" stroke-width="4.99999" stroke-linecap="round" stroke-linejoin="round"/>
<path d="M33.2843 75.9653C36.9607 73.0581 38.4247 71.345 40.5742 69.262" stroke="black" stroke-width="4.99999" stroke-linecap="round" stroke-linejoin="round"/>
</svg>
