<svg width="60" height="60" viewBox="0 0 60 60" fill="none" xmlns="http://www.w3.org/2000/svg">
<g clip-path="url(#clip0_1_55)">
<path d="M30 4.6871C16.03 4.6871 4.687 16.0301 4.687 30.0001C4.6871 43.9701 16.03 55.3131 30 55.3131C43.97 55.3131 55.313 43.9701 55.313 30.0001C55.313 16.0301 43.97 4.6871 30 4.6871Z" stroke="white" stroke-width="8.125" stroke-linecap="round" stroke-linejoin="round"/>
<path fill-rule="evenodd" clip-rule="evenodd" d="M30 4.6871C16.03 4.6871 4.687 16.0301 4.687 30.0001C4.6871 43.9701 16.03 55.3131 30 55.3131C43.97 55.3131 55.313 43.9701 55.313 30.0001C55.313 16.0301 43.97 4.6871 30 4.6871Z" fill="white" stroke="black" stroke-width="3.125"/>
<path fill-rule="evenodd" clip-rule="evenodd" d="M29.515 10.465C31.205 10.465 32.81 10.724 34.275 11.223C35.74 11.722 37.029 12.44 38.156 13.406C39.282 14.371 40.166 15.539 40.794 16.923C41.437 18.291 41.734 19.841 41.734 21.531C41.734 24.557 40.989 26.892 39.46 28.565C37.947 30.223 35.869 31.323 33.214 31.87V32.84C33.214 33.613 33.036 34.307 32.698 34.902C32.377 35.481 31.899 35.928 31.304 36.266C30.724 36.588 30.073 36.752 29.333 36.752C28.593 36.752 27.927 36.588 27.332 36.266C26.753 35.928 26.306 35.481 25.968 34.902C25.646 34.307 25.482 33.613 25.482 32.84V28.869C25.482 28.048 25.63 27.393 25.968 26.958C26.306 26.524 26.728 26.24 27.211 26.079C27.693 25.918 28.428 25.741 29.394 25.564C31.904 25.097 33.153 23.834 33.153 21.774C33.153 20.937 32.798 20.19 32.122 19.53C31.462 18.854 30.593 18.53 29.515 18.53C28.517 18.53 27.729 18.72 27.15 19.106C26.587 19.492 26.046 20.063 25.482 20.804C24.935 21.528 24.391 22.085 23.876 22.471C23.377 22.841 22.683 23.017 21.814 23.017C20.832 23.017 20.005 22.635 19.297 21.895C18.605 21.139 18.266 20.271 18.266 19.257C18.266 17.487 18.836 15.924 19.995 14.588C21.153 13.252 22.592 12.234 24.33 11.526C26.068 10.818 27.793 10.465 29.515 10.465ZM29.272 40.834C30.029 40.834 30.735 41.038 31.395 41.44C32.055 41.842 32.555 42.371 32.941 43.047C33.343 43.707 33.547 44.427 33.547 45.2C33.547 45.988 33.343 46.737 32.941 47.413C32.555 48.073 32.04 48.573 31.364 48.959C30.704 49.345 30.013 49.535 29.272 49.535C28.532 49.535 27.826 49.345 27.15 48.959C26.49 48.573 25.945 48.073 25.543 47.413C25.157 46.737 24.967 45.988 24.967 45.2C24.967 44.427 25.157 43.707 25.543 43.047C25.945 42.371 26.49 41.842 27.15 41.44C27.81 41.038 28.516 40.834 29.272 40.834Z" fill="black" stroke="black" stroke-width="1.25" stroke-linejoin="round"/>
</g>
<defs>
<clipPath id="clip0_1_55">
<rect width="60" height="60" fill="white"/>
</clipPath>
</defs>
</svg>
