<svg width="103" height="89" viewBox="0 0 103 89" fill="none" xmlns="http://www.w3.org/2000/svg">
<path d="M86.754 57.9409C92.2504 60.1957 94.896 56.2266 96.528 51.187C98.8346 44.0578 94.5766 28.0182 90.3163 22.9767C86.3758 18.3544 81.4978 16.8059 77.8685 19.89" fill="white"/>
<path d="M86.754 57.9409C92.2504 60.1957 94.896 56.2266 96.528 51.187C98.8346 44.0578 94.5766 28.0182 90.3163 22.9767C86.3758 18.3544 81.4978 16.8059 77.8685 19.89" stroke="black" stroke-width="4.99983" stroke-linecap="round" stroke-linejoin="round"/>
<path d="M40.9383 7.96025C53.7084 5.18908 75.8372 14.0523 82.8977 27.6245C86.4657 34.6457 89.8786 51.1879 86.4737 57.7679C80.7058 69.0283 71.9218 75.6569 60.4757 79.8594C56.4212 81.3435 51.6949 82.3126 47.7179 82.7069C31.4875 84.45 18.698 81.2894 18.803 70.0039C5.07464 68.7661 4.96663 47.8944 15.0292 46.179C1.67445 37.6624 10.1492 20.7952 25.1103 24.7688C26.5542 22.1752 27.681 10.8416 40.9383 7.96025Z" fill="white" stroke="black" stroke-width="4.99983" stroke-linecap="round" stroke-linejoin="round"/>
<path d="M15.7792 47.8102C26.4817 49.3996 30.5126 47.4277 33.3398 47.0811C26.576 46.2564 24.8406 46.2276 17.7213 44.8172C16.5104 44.5759 15.2644 44.2036 13.7873 43.1614L13.8538 48.3C13.6126 48.3742 15.009 47.8137 15.7792 47.8102Z" fill="black"/>
<path d="M17.7446 71.5382C24.0898 71.792 31.9196 71.3847 36.7996 69.2799C33.3084 69.1916 24.2979 68.3638 19.0387 68.3363C19.0386 68.3255 19.0501 68.3449 17.7446 71.5382Z" fill="black"/>
<path d="M79.2231 50.8765C71.7952 55.466 69.4897 55.7856 65.6295 57.4313" stroke="black" stroke-width="4.99983" stroke-linecap="round" stroke-linejoin="round"/>
<path d="M78.5618 43.0858C69.3482 45.9897 64.6357 46.5206 58.374 47.8885" stroke="black" stroke-width="4.99983" stroke-linecap="round" stroke-linejoin="round"/>
<path d="M77.4943 33.814C70.9426 34.9481 67.7327 34.8775 63.5706 35.1668" stroke="black" stroke-width="4.99983" stroke-linecap="round" stroke-linejoin="round"/>
<path d="M24.0142 23.0257C38.2959 24.0091 43.0409 18.9606 49.5697 15.0626C43.0264 20.4435 41.486 26.5786 24.9601 26.4545L24.0142 23.0257Z" fill="black"/>
</svg>
