<svg width="143" height="117" viewBox="0 0 143 117" fill="none" xmlns="http://www.w3.org/2000/svg">
<path d="M18.6648 57.2655C12.7997 58.2112 11.1261 53.7444 10.6829 48.4658C10.0581 40.9988 17.8524 26.3479 23.1475 22.4074C28.036 18.8024 33.1384 18.4038 35.9712 22.2325" fill="white"/>
<path d="M18.6648 57.2655C12.7997 58.2112 11.1261 53.7444 10.6829 48.4658C10.0581 40.9988 17.8524 26.3479 23.1475 22.4074C28.036 18.8024 33.1384 18.4038 35.9712 22.2325" stroke="black" stroke-width="3.0426" stroke-linecap="round" stroke-linejoin="round"/>
<path d="M74.6467 19.0142C62.8415 13.4114 39.2769 17.0097 29.3147 28.6205C24.2435 34.6463 17.1579 49.979 18.9771 57.1608C22.033 69.4379 29.0793 77.8905 39.2697 84.586C42.8805 86.9533 47.2626 88.9719 51.0456 90.2603C64.9603 94.7993 77.1621 87.6367 82.0918 84.4661C90.9554 87.9316 101.204 93.1683 110.601 98.6667C124.655 106.891 129.425 84.5147 116.18 76.9449C109.979 73.4015 105.213 69.7107 91.1851 62.1238C100.082 62.9419 113.098 63.524 121.502 65.3714C135.367 68.4212 135.205 46.6839 118.176 43.3122C106.58 41.0169 97.3069 41.1171 86.2373 38.9819C85.4211 36.1279 86.9014 24.8351 74.6467 19.0142Z" fill="white" stroke="black" stroke-width="3.0426" stroke-linecap="round" stroke-linejoin="round"/>
<path d="M92.1914 60.5215C81.4981 58.8709 75.6348 60.4702 72.8054 60.8007C79.5643 61.6641 81.2996 61.7028 88.4106 63.1539C89.6201 63.4021 90.9838 63.8877 92.5465 64.743L92.1914 60.5215Z" fill="black"/>
<path d="M82.6538 82.8741C76.7381 80.5653 69.0603 79.2045 63.7604 79.6031C70.219 81.9724 75.3206 83.8367 81.5255 85.9502C81.5322 85.934 82.0276 84.3947 82.6508 82.8726L82.6538 82.8741Z" fill="black"/>
<path d="M27.605 52.099C33.7945 58.2575 35.9669 59.093 39.3517 61.5735" stroke="black" stroke-width="7" stroke-linecap="round" stroke-linejoin="round"/>
<path d="M30.0209 44.6628C38.3326 49.586 42.8009 51.1748 48.5874 53.9308" stroke="black" stroke-width="7" stroke-linecap="round" stroke-linejoin="round"/>
<path d="M33.169 35.8767C39.291 38.4711 42.4329 39.1324 46.4201 40.3607" stroke="black" stroke-width="7" stroke-linecap="round" stroke-linejoin="round"/>
<path d="M87.7012 37.5337C73.57 35.2434 70.0976 29.2481 64.6263 23.9674C69.7744 30.6954 69.8792 37.02 86.0003 40.6576L87.7012 37.5337Z" fill="black"/>
</svg>
